<svg xmlns="http://www.w3.org/2000/svg" viewBox="19 10 279 279" width="32" height="32">
<g transform="translate(0.000000,304.000000) scale(0.100000,-0.100000)">
<path fill="#09AA60" fill-rule="evenodd" d="M406 1894 c-19 -18 -20 -38 -6 -65 13 -23 425 -30 448 -7 15 15 15
61 0 76 -20 20 -422 17 -442 -4z"/>
<path fill="#FC8C0B" fill-rule="evenodd" d="M412 1554 c-27 -18 -29 -55 -4 -77 22 -20 397 -25 433 -7 23 13 26
62 3 84 -23 23 -399 24 -432 0z"/>
<path fill="#5947D9" fill-rule="evenodd" d="M406 1204 c-19 -19 -21 -51 -3 -69 18 -17 422 -22 443 -4 17 14 18
61 2 77 -20 20 -422 17 -442 -4z"/>
<path fill="#01214C" fill-rule="evenodd" d="M795 2576 c-37 -16 -60 -56 -60 -106 0 -34 13 -50 152 -201 l152
-164 1 -563 0 -564 -149 -161 c-154 -168 -167 -188 -156 -236 21 -97 112 -110
190 -28 183 193 292 312 302 331 17 30 18 1277 1 1309 -20 39 -341 379 -366
388 -29 11 -30 11 -67 -5z M2313 2583 c-12 -2 -46 -32 -75 -66 -29 -34 -73 -83 -98 -108 -77
-78 -146 -153 -173 -187 -27 -34 -27 -34 -27 -683 0 -649 0 -649 43 -696 174
-193 302 -329 314 -336 63 -37 143 18 143 98 0 43 -3 48 -142 195 -78 83 -148
160 -156 171 -18 25 -17 4 -14 620 l2 507 151 163 c163 176 175 195 159 244
-19 58 -71 90 -127 78z"/>
<path fill="#029AE6" fill-rule="evenodd" d="M1560 2007 c-54 -27 -60 -91 -14 -134 32 -30 69 -29 99 2 64 63 -6
172 -85 132z M2332 1898 c-7 -7 -12 -24 -12 -38 0 -48 9 -50 237 -50 200 0 213 1
223 19 14 27 13 47 -6 65 -20 21 -422 24 -442 4z M1548 1606 c-23 -17 -38 -59 -31 -87 22 -92 153 -72 153 23 0 59 -76
99 -122 64z M2336 1554 c-23 -22 -20 -71 3 -84 38 -20 415 -13 434 8 21 23 21 41
1 70 -15 22 -20 22 -219 22 -172 0 -206 -2 -219 -16z M1535 1199 c-46 -55 -14 -129 56 -129 72 0 106 86 53 135 -38 35 -76
32 -109 -6z M2415 1223 c-78 -5 -95 -14 -95 -52 0 -49 9 -51 237 -51 200 0 213 1
223 19 14 27 13 56 -3 70 -15 12 -249 21 -362 14z"/>
</g>
</svg>