<svg xmlns="http://www.w3.org/2000/svg" viewBox="0 0 596 284" width="596" height="284">
<g transform="translate(0.000000,284.000000) scale(0.100000,-0.100000)">
<path fill="#09AA60" fill-rule="evenodd" d="M368 2329 c-25 -14 -24 -65 1 -79 34 -18 70 21 51 56 -18 32 -29 37
-52 23z M530 2050 c0 -161 2 -192 15 -196 34 -13 42 13 48 158 7 184 1 222
-36 226 -27 3 -27 3 -27 -188z M191 2164 c-27 -35 -32 -282 -6 -304 37 -30 45 -7 45 126 0 106 3
129 16 139 12 8 15 20 10 38 -8 35 -38 35 -65 1z M840 2110 c-75 -5 -75 -5 -75 -40 0 -35 0 -35 340 -40 425 -6 436
-10 581 -195 116 -150 196 -207 314 -226 69 -11 90 -3 90 36 0 30 -16 41 -73
49 -106 13 -160 52 -278 198 -164 202 -202 216 -560 220 -145 2 -298 1 -339
-2z M421 2041 c-16 -30 -14 -153 3 -177 26 -35 37 -4 34 96 -3 95 -15
122 -37 81z M295 1997 c-13 -51 -1 -142 19 -145 26 -5 36 15 36 76 0 80 -40 130
-55 69z"/>
<path fill="#FC8C0B" fill-rule="evenodd" d="M213 1600 c-46 -19 -53 -54 -53 -265 0 -198 4 -226 39 -251 23 -18
138 -26 252 -18 160 11 159 9 159 264 0 284 3 280 -228 279 -81 0 -157 -4
-169 -9z m333 -61 c25 -21 20 -395 -5 -409 -28 -15 -304 -13 -319 2 -18 18
-17 391 1 406 27 23 296 23 323 1z M280 1440 c0 -19 7 -20 103 -20 108 0 119 3 110 26 -10 25 -213 20
-213 -6z M280 1335 c0 -25 0 -25 104 -25 75 0 106 4 109 13 11 32 -5 37 -109
37 -104 0 -104 0 -104 -25z M280 1230 c0 -18 7 -20 58 -20 51 0 58 2 59 20 2 18 -4 20 -58 20
-52 0 -59 -2 -59 -20z M771 1376 c-7 -8 -11 -27 -9 -43 3 -28 3 -28 663 -28 660 0 660 0
663 28 7 60 38 57 -663 57 -547 0 -644 -2 -654 -14z"/>
<path fill="#5947D9" fill-rule="evenodd" d="M1965 1055 c-27 -8 -53 -14 -56 -15 -25 -1 -136 -90 -178 -142 -28
-34 -61 -73 -73 -85 -13 -13 -19 -23 -15 -23 19 0 -93 -86 -143 -109 -55 -26
-55 -26 -395 -31 -340 -5 -340 -5 -350 -33 -19 -55 -6 -57 335 -57 412 0 458
13 594 164 188 209 229 240 342 254 65 8 85 32 58 71 -18 24 -47 26 -119 6z M344 856 c-12 -31 0 -51 34 -54 36 -4 65 18 60 46 -4 23 -85 31 -94
8z M229 799 c-32 -35 -38 -66 -13 -76 31 -12 90 49 79 79 -12 30 -36 29
-66 -3z M492 818 c-27 -27 13 -102 52 -96 31 4 31 40 1 77 -30 34 -35 37 -53
19z M167 663 c-14 -13 -7 -103 8 -109 22 -9 45 21 45 58 0 45 -31 74 -53
51z M562 658 c-18 -18 -15 -85 5 -96 24 -14 43 9 43 50 0 31 -14 58 -30
58 -3 0 -11 -5 -18 -12z M510 478 c-35 -37 -36 -71 -3 -76 21 -3 73 51 73 76 0 32 -39 32 -70
0z M196 484 c-6 -17 37 -84 54 -84 43 0 50 27 18 70 -24 33 -62 40 -72
14z M338 403 c-21 -26 3 -48 53 -48 47 0 64 22 37 47 -19 18 -75 19 -90
1z"/>
<path fill="#01214C" fill-rule="evenodd" d="M1980 2667 c-56 -28 -84 -108 -60 -171 5 -14 88 -116 185 -226 l175
-201 0 -654 0 -653 -97 -112 c-54 -62 -102 -119 -108 -127 -5 -8 -23 -29 -40
-47 -138 -148 -160 -220 -87 -289 60 -57 112 -45 182 39 25 31 57 67 71 82 67
69 285 326 291 344 5 11 9 353 9 761 2 851 14 753 -108 889 -43 48 -130 148
-193 222 -130 152 -161 173 -220 143z M3623 2667 c-12 -7 -43 -37 -68 -67 -25 -30 -53 -64 -64 -75 -88 -95
-294 -341 -301 -361 -17 -44 -13 -1468 4 -1507 18 -43 410 -490 439 -500 62
-23 136 31 144 105 7 63 4 67 -186 284 -95 110 -177 209 -182 222 -14 36 -12
1268 3 1295 6 12 45 61 87 108 286 324 280 316 281 372 1 93 -89 164 -157 124z"/>
<path fill="#029AE6" fill-rule="evenodd" d="M2803 1845 c-40 -28 -39 -111 1 -137 26 -18 75 -8 95 18 58 74 -22
171 -96 119z M5301 1770 c-57 -21 -140 -78 -141 -97 0 -6 -9 -18 -20 -26 -51 -36
-110 -193 -110 -294 0 -388 372 -598 630 -356 330 309 47 919 -359 773z m157
-166 c51 -14 80 -137 46 -190 -71 -107 -214 -29 -189 103 12 68 74 105 143 87z
m62 -296 c60 -31 90 -77 90 -139 0 -49 0 -49 -195 -49 -195 0 -195 0 -194 33
3 141 163 223 299 155z M3609 1649 c-8 -16 -8 -28 0 -45 11 -24 11 -24 624 -24 646 0 637 -1
637 45 0 46 9 45 -637 45 -612 0 -612 0 -624 -21z M2804 1442 c-37 -24 -43 -87 -13 -126 43 -54 129 -18 129 54 0 58
-71 102 -116 72z M3608 1364 c-28 -61 -54 -59 622 -62 644 -2 640 -3 640 42 0 47 10
46 -637 46 -613 0 -613 0 -625 -26z M3614 1085 c-14 -21 -15 -31 -6 -50 12 -25 12 -25 625 -25 658 0 637
-2 637 52 0 48 -1 48 -639 48 -601 0 -601 0 -617 -25z M2795 1045 c-49 -48 -17 -135 49 -135 58 0 91 63 62 118 -25 49 -72
56 -111 17z"/>
<path fill="#FFFFFF" fill-rule="evenodd" d="M5367 1589 c-50 -29 -63 -129 -22 -177 49 -59 126 -48 159 23 45 94
-52 204 -137 154z M298 1543 c-56 -3 -70 -8 -79 -25 -13 -24 -9 -354 4 -375 10 -16 287
-19 287 -3 0 6 5 10 11 10 5 0 7 -4 4 -10 -3 -6 1 -7 9 -4 19 7 19 11 16 224
-1 91 -5 169 -10 174 -10 10 -146 15 -242 9z m200 -105 c3 -28 3 -28 -108 -28
-115 0 -131 6 -116 45 5 13 24 15 113 13 108 -3 108 -3 111 -30z m-251 -10
c-3 -8 -6 -5 -6 6 -1 11 2 17 5 13 3 -3 4 -12 1 -19z m251 -90 c-3 -33 -3 -33
-93 -36 -113 -4 -135 1 -135 32 0 35 5 36 122 36 109 0 109 0 106 -32z m-248
-4 c0 -8 -4 -12 -10 -9 -5 3 -10 13 -10 21 0 8 5 12 10 9 6 -3 10 -13 10 -21z
m162 -91 c10 -36 -2 -43 -73 -43 -66 0 -69 1 -69 23 0 34 6 37 76 37 50 0 62
-3 66 -17z m-152 -13 c0 -11 -4 -20 -10 -20 -5 0 -10 9 -10 20 0 11 5 20 10
20 6 0 10 -9 10 -20z M5325 1301 c-61 -28 -95 -82 -95 -150 0 -26 0 -26 173 -24 231 3 210
-3 203 52 -16 116 -159 178 -281 122z"/>
</g>
</svg>